# xmcd
#
# Track frame offsets:
# 150
# 18699
# 30249
# 43870
# 54546
# 83431
# 99483
# 128034
# 147816
# 159274
# 174515
# 202775
# 212798
# 225529
# 243515
# 258560
# 280642
# 313400
# 327650
# 340328
#
# Disc length: 4666 seconds
#
#
# Revision: 0
# Processed by: cddbd v1.5.1PL2 Copyright (c) Steve Scherf et al.
# Submitted via: FreeRIP 2.945 
#
DISCID=16123814
DTITLE=Henrique Annes - Dedilhando Pernambuco
DYEAR=1900
DGENRE=Country
TTITLE0=Thug (quadrilha)
TTITLE1=Minha Loa (Maracatu)
TTITLE2=Exposição Municipal (pas de quatre)
TTITLE3=Dança do Matuto (baião)
TTITLE4=Alma e Coração (valsa)
TTITLE5=Interrogando (choro)
TTITLE6=Ânsia (valsa)
TTITLE7=Obstinação (valsa)
TTITLE8=Choro
TTITLE9=Dedicação (valsa)
TTITLE10=Amargura (valsa)
TTITLE11=Negro (choro)
TTITLE12=Divagando (choro)
TTITLE13=Silvana (valsa)
TTITLE14=Minueto à Antiga (minueto)
TTITLE15=Risomar (valsa)
TTITLE16=São  Cinco Irmãs (Quadrilha)
TTITLE17=Choro n2 (choro)
TTITLE18=Galo de Ouro (frevo)
TTITLE19=Na Poeira das Ruas (frevo)
EXTD=Violão: Henrique Annes\nbandolim: adalberto Cavalcanti\nflauta: Mozart Ramos\nviola sertaneja: Ednaldo Bispo\nCelo: Mariza Johnson Wolkoff\nbaixo: Thiago Furnier\npercussão: Passarinho Gomes
EXTT0=autor: Salustiano Ibânio Tenório
EXTT1=autor: Marambá
EXTT2=autor: Alfredo Gama
EXTT3=autor: Alfredo Medeiros
EXTT4=autor:Luperce Miranda
EXTT5=autor: João Pernambuco
EXTT6=autor: José do Carmo
EXTT7=autor: Nelson Ferreira
EXTT8=autor: Jayme Duarte
EXTT9=autor: Nelson Vaz
EXTT10=autor: Valdemar de Oliveira
EXTT11=autor: Henrique Annes
EXTT12=autor: Nelson Miranda
EXTT13=autor: Antonio da Silva Torres "Jacaré"
EXTT14=autor: Euclides Fonseca
EXTT15=autor: Clóris Pereira
EXTT16=autor: Cláudio Carneiro Leal
EXTT17=autor: Capiba
EXTT18=autor: José Menezes
EXTT19=autor: Ivanildo Maciel
PLAYORDER=
